<?xml version="1.0" encoding="UTF-8"?>
<svg version="1.1" xmlns="http://www.w3.org/2000/svg" width="400" height="337">
<path d="M0 0 C0.8549707 -0.01257339 1.70994141 -0.02514679 2.59082031 -0.0381012 C21.60231518 -0.26337881 39.62136812 -0.15497375 58.0078125 5.2734375 C58.87905762 5.52512695 59.75030273 5.77681641 60.64794922 6.03613281 C78.26573214 11.28482587 95.15612099 19.42465212 110.0078125 30.2734375 C110.85988281 30.85738281 111.71195312 31.44132812 112.58984375 32.04296875 C117.67114404 35.67950515 121.39133993 39.08773582 123.0078125 45.2734375 C123.7764306 51.54750621 123.69823541 56.92868708 120.0078125 62.2734375 C115.8795127 67.07119132 111.8500523 69.50821909 105.7578125 71.1484375 C98.36195902 71.39496595 92.90646705 69.18079851 87.0703125 64.7109375 C74.26998568 54.92139178 59.47549412 48.51569001 44.0078125 44.2734375 C42.83347656 43.93441406 41.65914062 43.59539063 40.44921875 43.24609375 C8.56024005 35.66678556 -27.41992024 42.12739904 -55.2734375 58.88671875 C-61.18555358 62.59865678 -66.62766995 66.81719806 -71.9921875 71.2734375 C-72.86359375 71.97984375 -73.735 72.68625 -74.6328125 73.4140625 C-98.06565043 93.30986829 -112.29439259 124.11571407 -115.9921875 154.2734375 C-117.08615889 170.85567709 -116.57853464 187.25109526 -111.9921875 203.2734375 C-111.78319824 204.0041748 -111.57420898 204.73491211 -111.35888672 205.48779297 C-105.32559138 225.73887644 -94.46511606 242.97763341 -79.9921875 258.2734375 C-79.22132812 259.10875 -78.45046875 259.9440625 -77.65625 260.8046875 C-56.88764886 282.58147316 -25.82365644 295.48630933 4.04296875 296.58984375 C18.82583099 296.91985613 32.73794088 296.23949593 47.0078125 292.2734375 C47.66168945 292.10215332 48.31556641 291.93086914 48.98925781 291.75439453 C64.32127414 287.65561975 78.55347593 279.61725977 91.1484375 270.0859375 C96.49740742 266.69533361 101.57468436 265.7678931 107.734375 266.671875 C113.22245599 268.12404763 116.98906317 270.96734862 120.4453125 275.3984375 C123.73054296 281.44326155 123.93454374 287.72252516 122.5703125 294.421875 C117.65001814 306.97887622 99.24154866 314.48453478 88.0078125 320.2734375 C87.36054199 320.61004395 86.71327148 320.94665039 86.04638672 321.29345703 C75.78118798 326.56521348 65.14427625 330.29072968 54.0078125 333.2734375 C53.23808105 333.48661621 52.46834961 333.69979492 51.67529297 333.91943359 C25.05660163 340.96079499 -7.7102654 340.02150963 -33.9921875 332.2734375 C-34.88615234 332.01111328 -35.78011719 331.74878906 -36.70117188 331.47851562 C-48.38784475 327.92910369 -59.28135527 323.10808548 -69.9921875 317.2734375 C-71.013125 316.73203125 -72.0340625 316.190625 -73.0859375 315.6328125 C-110.67932775 294.81496736 -139.00564207 258.43434243 -151.17456055 217.36914062 C-151.38250244 216.63630859 -151.59044434 215.90347656 -151.8046875 215.1484375 C-151.98749268 214.50583984 -152.17029785 213.86324219 -152.35864258 213.20117188 C-152.96619179 210.90242811 -153.48861876 208.59740725 -153.9921875 206.2734375 C-154.25257813 205.07944336 -154.51296875 203.88544922 -154.78125 202.65527344 C-156.91386996 192.21126928 -157.46044155 182.05116291 -157.38330078 171.40771484 C-157.36719822 168.77518948 -157.38326426 166.14419853 -157.40234375 163.51171875 C-157.42146708 148.82285441 -155.42794024 134.96229656 -151.3046875 120.8359375 C-151.05050049 119.96106689 -150.79631348 119.08619629 -150.53442383 118.18481445 C-144.62995225 98.63696648 -134.84734054 80.12110157 -121.9921875 64.2734375 C-121.55616211 63.73589844 -121.12013672 63.19835938 -120.67089844 62.64453125 C-107.28329958 46.24067877 -92.19794716 33.09222779 -73.9921875 22.2734375 C-73.13318848 21.76151855 -73.13318848 21.76151855 -72.25683594 21.23925781 C-50.65421514 8.57815925 -25.12721313 0.33661519 0 0 Z " fill="#007BFE" transform="translate(156.9921875,-0.2734375)"/>
<path d="M0 0 C1.05380859 0.5261792 1.05380859 0.5261792 2.12890625 1.06298828 C8.41443906 4.42181988 13.06203208 9.03545412 15.9375 15.625 C16.84217287 22.82429148 16.80643719 29.09790094 12.36328125 35.04296875 C7.93252224 39.95929039 2.967868 42.82472873 -3.6875 43.3125 C-9.69732532 43.247441 -14.23155409 40.93509797 -19.5 38.3125 C-35.61195131 30.31023604 -54.44447415 26.95858273 -72.1484375 32.46875 C-90.76229443 39.85440905 -104.96983003 50.57695366 -113.875 69.125 C-121.45568458 87.22165108 -121.94579827 105.63185046 -114.8125 123.9375 C-106.65250294 141.97280882 -94.3779232 153.95361855 -76.0625 161.625 C-59.60940514 167.25600573 -41.26314263 167.38122229 -25.1875 160.3125 C-23.46373137 159.44673915 -21.754628 158.55107935 -20.0625 157.625 C-19.20011719 157.15964844 -18.33773437 156.69429687 -17.44921875 156.21484375 C-4.29602203 148.730096 3.84037349 138.546044 10.07958984 124.88330078 C10.61595062 123.71163361 11.1523114 122.53996643 11.70492554 121.33279419 C12.11167511 120.43922211 12.51842468 119.54565002 12.9375 118.625 C12.02818726 118.63388245 11.11887451 118.64276489 10.18200684 118.6519165 C1.59032274 118.73224144 -7.00123427 118.79305522 -15.59320831 118.83224869 C-20.00989368 118.85307628 -24.4262674 118.88130492 -28.84277344 118.92675781 C-33.10921774 118.97038889 -37.37536327 118.99417339 -41.64201355 119.00450897 C-43.26544392 119.01186951 -44.88885893 119.02624281 -46.51216125 119.04792023 C-63.57314272 119.26658009 -63.57314272 119.26658009 -71.0859375 112.9140625 C-75.38180389 107.62493221 -77.65358836 102.87622084 -77.4375 95.83984375 C-76.40248975 89.72681445 -73.45042598 84.24503161 -68.4375 80.5625 C-64.63146578 78.37755443 -62.03665859 77.50231577 -57.73139954 77.47109985 C-56.84693649 77.46249939 -55.96247345 77.45389893 -55.0512085 77.44503784 C-54.0833844 77.44077789 -53.1155603 77.43651794 -52.1184082 77.43212891 C-50.58620888 77.41986267 -50.58620888 77.41986267 -49.02305603 77.40734863 C-45.6364704 77.38249977 -42.2499267 77.36597905 -38.86328125 77.3515625 C-37.70656607 77.34623882 -36.54985088 77.34091515 -35.35808372 77.33543015 C-29.23457883 77.30869966 -23.11109431 77.28932515 -16.98754883 77.27490234 C-10.66684803 77.25826278 -4.34666945 77.21348975 1.97383404 77.1625309 C6.83723032 77.12885144 11.70050281 77.11732404 16.5640049 77.11167526 C18.89357299 77.10496389 21.22313297 77.08974492 23.55258751 77.06578445 C26.81763445 77.03411915 30.08127496 77.03409894 33.34643555 77.04150391 C34.30413849 77.02509857 35.26184143 77.00869324 36.24856567 76.99179077 C42.71179144 77.05162439 46.914325 78.51376076 51.9375 82.625 C58.6257009 89.66521148 58.43838405 97.17611964 58.25 106.3671875 C56.99984575 134.5269119 42.79256982 160.17046473 22.9375 179.625 C9.44753713 191.4420651 -5.88702233 199.58820303 -23.0625 204.625 C-24.19171875 204.9653125 -25.3209375 205.305625 -26.484375 205.65625 C-53.99693572 212.50269368 -83.9937708 207.20774038 -108.3828125 193.3125 C-134.9210344 176.60038359 -152.71386995 152.21912117 -160.3359375 121.9296875 C-166.76719715 92.67782911 -160.92735178 61.85592731 -145.0625 36.625 C-128.08457147 11.88023081 -102.75904032 -5.41961376 -73.125 -11.1875 C-47.95181887 -15.51245902 -22.66915536 -11.57480013 0 0 Z " fill="#002CB8" transform="translate(221.0625,70.375)"/>
<path d="M0 0 C9.17316013 3.99447821 13.04787698 13.49442054 16.71484375 22.1953125 C17.14563232 23.20650146 17.5764209 24.21769043 18.02026367 25.25952148 C24.79132919 41.44522909 29.4357226 58.15322789 32.71484375 75.3828125 C32.90320801 76.34251953 33.09157227 77.30222656 33.28564453 78.29101562 C35.1305712 89.11326641 35.08705028 99.95889903 35.08544922 110.91015625 C35.08978976 114.21668317 35.12612148 117.52183575 35.1640625 120.828125 C35.3377869 153.87669131 28.15110853 197.75311502 7.71484375 225.0546875 C3.21059285 229.44996458 -2.0109786 231.34495924 -8.28515625 231.3828125 C-14.84563575 230.35147074 -20.44127545 228.25912528 -24.46875 222.76953125 C-27.98837522 216.88725105 -28.59065295 211.05375719 -27.28515625 204.3828125 C-25.77651193 200.28311362 -23.87447543 196.37035485 -21.99072266 192.43261719 C-12.30512375 172.04943477 -6.15112073 148.46829619 -6.1171875 125.81640625 C-6.1138591 125.01985123 -6.1105307 124.2232962 -6.10710144 123.40260315 C-6.10206869 121.72438121 -6.09969198 120.0461494 -6.09985352 118.36791992 C-6.09768291 115.85122346 -6.07953185 113.33497766 -6.06054688 110.81835938 C-5.96400623 82.90368333 -12.64887821 55.26978193 -25.28515625 30.3203125 C-28.39837742 23.71523515 -28.39828318 16.91862744 -26.22265625 10.0078125 C-19.56125292 0.98268541 -11.16231098 -3.01477801 0 0 Z " fill="#50C0FE" transform="translate(365.28515625,53.6171875)"/>
<path d="M0 0 C13.87429725 10.35820822 17.58899005 37.84443186 20.28125 53.703125 C23.09788594 73.47746987 23.07204219 96.24533535 18.28125 115.703125 C18.07725586 116.54439941 17.87326172 117.38567383 17.66308594 118.25244141 C15.32140762 127.63790173 12.50796761 136.79596248 8.71875 145.703125 C8.45030273 146.34338623 8.18185547 146.98364746 7.90527344 147.64331055 C5.02812498 154.02902957 0.72721839 158.08327113 -5.546875 160.97265625 C-10.87780606 162.76561328 -15.78325341 162.3947435 -20.90625 160.140625 C-26.09171832 157.21150816 -29.46844718 153.14936965 -32.15625 147.890625 C-33.60256199 139.69485708 -31.26158764 133.14130245 -28.09277344 125.65673828 C-15.61679668 95.70692341 -16.79371709 60.63460147 -28.89453125 30.8046875 C-29.24902344 29.96679688 -29.60351562 29.12890625 -29.96875 28.265625 C-32.83158893 21.277961 -33.66259575 15.02857857 -30.93359375 7.84765625 C-28.23232107 3.07917168 -23.92806433 0.00605396 -19.28125 -2.734375 C-12.1305986 -4.30403018 -6.44321362 -3.61933605 0 0 Z " fill="#50C0FE" transform="translate(316.71875,89.296875)"/>
</svg>
